<svg width="34" height="13" viewBox="0 0 34 13" fill="none" xmlns="http://www.w3.org/2000/svg">
<path d="M0.666748 5.4174L0.666748 7.25073L31.6272 7.25073L31.6272 5.4174L0.666748 5.4174Z" fill="#EB2452"/>
<path d="M33.168 6.35599C33.168 6.3569 33.168 6.35874 33.168 6.36057C33.1661 7.05999 32.805 7.72274 32.1752 8.17832L26.3342 12.4106C25.9245 12.7076 25.3506 12.6168 25.0546 12.2062C24.7585 11.7955 24.8492 11.2217 25.259 10.9265L31.1 6.69424C31.2494 6.58607 31.3346 6.46324 31.3356 6.35599C31.3356 6.24965 31.2503 6.12682 31.1027 6.01774L25.2562 1.73965C24.8474 1.44082 24.7576 0.866988 25.0573 0.459071C25.3561 0.0502386 25.93 -0.0386773 26.3379 0.260156L32.1844 4.53824C32.8096 4.99657 33.168 5.6584 33.168 6.35599Z" fill="#EB2452"/>
</svg>
