<svg width="19" height="19" viewBox="0 0 19 19" fill="none" xmlns="http://www.w3.org/2000/svg">
<path d="M10.1508 8.84899H18.6111V3.64264C18.6111 1.8484 17.1513 0.388672 15.3571 0.388672H10.1508V8.84899ZM12.7539 4.29343H15.3571C15.717 4.29343 16.0079 4.58499 16.0079 4.94423C16.0079 5.30347 15.717 5.59502 15.3571 5.59502H12.7539C12.394 5.59502 12.1031 5.30347 12.1031 4.94423C12.1031 4.58499 12.394 4.29343 12.7539 4.29343Z" fill="white"/>
<path d="M8.84765 10.1506H0.387329V15.357C0.387329 17.1512 1.84706 18.611 3.6413 18.611H8.84765V10.1506ZM6.70458 15.8171C6.57768 15.944 6.41107 16.0078 6.24447 16.0078C6.07787 16.0078 5.91127 15.944 5.78436 15.8171L4.94288 14.9756L4.10141 15.8171C3.9745 15.944 3.8079 16.0078 3.6413 16.0078C3.47469 16.0078 3.30809 15.944 3.18119 15.8171C2.92673 15.5626 2.92673 15.1513 3.18119 14.8969L4.02266 14.0554L3.18119 13.2139C2.92673 12.9595 2.92673 12.5482 3.18119 12.2937C3.43565 12.0392 3.84695 12.0392 4.10141 12.2937L4.94288 13.1352L5.78436 12.2937C6.03882 12.0392 6.45012 12.0392 6.70458 12.2937C6.95904 12.5482 6.95904 12.9595 6.70458 13.2139L5.86311 14.0554L6.70458 14.8969C6.95904 15.1513 6.95904 15.5626 6.70458 15.8171Z" fill="white"/>
<path d="M8.84838 8.84911V0.388794H3.64203C1.84779 0.388794 0.388062 1.84852 0.388062 3.64276V8.84911H8.84838ZM3.64203 4.29356H4.29282V3.64276C4.29282 3.28352 4.58373 2.99197 4.94362 2.99197C5.30351 2.99197 5.59441 3.28352 5.59441 3.64276V4.29356H6.2452C6.60509 4.29356 6.896 4.58511 6.896 4.94435C6.896 5.30359 6.60509 5.59514 6.2452 5.59514H5.59441V6.24594C5.59441 6.60517 5.30351 6.89673 4.94362 6.89673C4.58373 6.89673 4.29282 6.60517 4.29282 6.24594V5.59514H3.64203C3.28214 5.59514 2.99124 5.30359 2.99124 4.94435C2.99124 4.58511 3.28214 4.29356 3.64203 4.29356Z" fill="white"/>
<path d="M10.1508 10.1506V18.611H15.3571C17.1513 18.611 18.6111 17.1512 18.6111 15.357V10.1506H10.1508ZM15.3571 15.357H12.7539C12.394 15.357 12.1031 15.0654 12.1031 14.7062C12.1031 14.347 12.394 14.0554 12.7539 14.0554H15.3571C15.717 14.0554 16.0079 14.347 16.0079 14.7062C16.0079 15.0654 15.717 15.357 15.3571 15.357ZM15.3571 13.4046H12.7539C12.394 13.4046 12.1031 13.113 12.1031 12.7538C12.1031 12.3946 12.394 12.103 12.7539 12.103H15.3571C15.717 12.103 16.0079 12.3946 16.0079 12.7538C16.0079 13.113 15.717 13.4046 15.3571 13.4046Z" fill="white"/>
</svg>
