<svg width="18" height="18" viewBox="0 0 18 18" fill="none" xmlns="http://www.w3.org/2000/svg">
<path d="M9.85959 15.9967V16.9733C9.85959 17.1205 9.7392 17.2409 9.59203 17.2409H0.267561C0.120405 17.2409 0 17.1205 0 16.9733V15.9967C0 15.4375 0.454856 14.9827 1.01405 14.9827H8.84555C9.40475 14.9827 9.85959 15.4375 9.85959 15.9967Z" fill="white"/>
<path d="M8.86396 13.8937V15.2502H0.997681V13.8937C0.997681 13.3345 1.45254 12.8796 2.01174 12.8796H7.84991C8.40911 12.8796 8.86396 13.3345 8.86396 13.8937Z" fill="white"/>
<path d="M7.97866 10.1506C7.96261 10.1373 7.94655 10.1239 7.92782 10.1132L7.5345 9.85632L4.13382 7.62753L3.687 7.3359L3.68432 7.33322C3.45154 7.18071 3.17327 7.1272 2.90037 7.18339C2.62745 7.24225 2.39468 7.40011 2.24217 7.63289C2.12712 7.80949 2.07092 8.00748 2.07092 8.20547C2.07092 8.54528 2.23681 8.87705 2.54183 9.07772L6.78534 11.8577C6.95658 11.9701 7.15457 12.0289 7.35524 12.0289C7.42481 12.0289 7.49706 12.0209 7.56928 12.0048C7.8422 11.9486 8.07498 11.7881 8.22749 11.5553C8.53251 11.0924 8.41746 10.4744 7.97866 10.1506Z" fill="white"/>
<path d="M7.1281 2.22536L7.14949 2.23875L7.59633 2.53038L10.9515 4.72974L11.3716 5.00531C11.3796 5.01067 11.3903 5.01603 11.3983 5.02137C11.5642 5.12304 11.7489 5.17656 11.9388 5.17656C12.0111 5.17656 12.0833 5.16852 12.1556 5.15247C12.4258 5.09629 12.6612 4.93575 12.8138 4.70297C13.1295 4.22404 12.993 3.57655 12.5141 3.26083L8.27057 0.480874C7.78896 0.165155 7.14147 0.301597 6.82575 0.780541C6.67324 1.01332 6.6224 1.29157 6.6786 1.56449C6.73477 1.83741 6.89532 2.07286 7.1281 2.22536Z" fill="white"/>
<path d="M17.1456 11.1593L10.3095 6.65623L11.6082 4.71916L11.5894 4.70844L11.1614 4.42751L7.80882 2.23083L7.36467 1.94188C7.36199 1.9392 7.35932 1.9392 7.35664 1.93652L3.47534 7.64335L7.31752 10.1611L7.69745 10.4099C7.71886 10.4233 7.74025 10.4394 7.76166 10.4554L9.03588 8.56394L15.8774 13.0723C16.0674 13.1981 16.2868 13.265 16.5088 13.265C16.5864 13.265 16.664 13.257 16.7389 13.2409C17.0413 13.1794 17.2981 13.0054 17.4694 12.7486C17.8172 12.2215 17.6727 11.5098 17.1456 11.1593Z" fill="white"/>
</svg>
