<svg width="25" height="19" viewBox="0 0 25 19" fill="none" xmlns="http://www.w3.org/2000/svg">
<path d="M22.059 0H2.1256C0.955009 0 0 0.95397 0 2.1256V16.2963C0 17.4639 0.950758 18.4219 2.1256 18.4219H22.059C23.2267 18.4219 24.1846 17.4711 24.1846 16.2963V2.1256C24.1846 0.957938 23.2339 0 22.059 0ZM21.7655 1.41707L12.1374 11.0452L2.42597 1.41707H21.7655ZM1.41707 16.0028V2.41227L8.24162 9.1783L1.41707 16.0028ZM2.41908 17.0048L9.24792 10.176L11.6407 12.5482C11.9177 12.8229 12.3647 12.822 12.6406 12.5461L14.9737 10.2129L21.7655 17.0048H2.41908ZM22.7675 16.0028L15.9757 9.21094L22.7675 2.41903V16.0028Z" fill="white"/>
</svg>
