<svg width="10" height="18" viewBox="0 0 10 18" fill="none" xmlns="http://www.w3.org/2000/svg">
<path d="M5 18C2.24268 18 0 15.477 0 12.375V4.5C0 4.08527 0.298706 3.75005 0.666626 3.75005C1.03467 3.75005 1.33337 4.08527 1.33337 4.5V12.375C1.33337 14.649 2.97803 16.5 5 16.5C7.02197 16.5 8.66663 14.649 8.66663 12.375V4.12495C8.66663 2.67751 7.62 1.50005 6.33337 1.50005C5.04663 1.50005 4 2.67751 4 4.12495V11.625C4 12.2452 4.44861 12.75 5 12.75C5.55139 12.75 6 12.2452 6 11.625V4.5C6 4.08527 6.29871 3.75005 6.66663 3.75005C7.03467 3.75005 7.33337 4.08527 7.33337 4.5V11.625C7.33337 13.0725 6.28662 14.25 5 14.25C3.71338 14.25 2.66663 13.0725 2.66663 11.625V4.12495C2.66663 1.85106 4.31128 0 6.33337 0C8.35535 0 10 1.85106 10 4.12495V12.375C10 15.477 7.75732 18 5 18Z" fill="white"/>
</svg>
