<svg width="17" height="17" viewBox="0 0 17 17" fill="none" xmlns="http://www.w3.org/2000/svg">
<path fill-rule="evenodd" clip-rule="evenodd" d="M4.3193 6.07271L5.35312 5.57828C5.80261 5.35353 5.9824 4.8591 5.84755 4.40961L4.49909 0.678871C4.4092 0.36423 4.1395 0.139486 3.77991 0.0495891C2.61125 -0.130206 1.66733 0.184435 0.903199 0.903614C0.273917 1.48795 -0.0407237 2.25207 0.00422498 3.1061C0.363814 9.12922 7.24096 15.9614 13.2191 16.321C14.0732 16.4109 14.8373 16.0963 15.4666 15.467C16.1858 14.7029 16.5004 13.7589 16.2756 12.5453C16.2307 12.2307 16.006 11.961 15.6464 11.8261L11.9156 10.5226C11.4661 10.3428 10.9717 10.5676 10.747 11.0171L10.2975 12.0059C7.5556 11.0171 5.35312 8.76963 4.3193 6.07271Z" fill="#EB2452"/>
</svg>
