<svg width="10" height="16" viewBox="0 0 10 16" fill="none" xmlns="http://www.w3.org/2000/svg">
<path d="M4.69398 0C2.10574 0 0 2.10573 0 4.69398C0 5.2966 0.488553 5.78515 1.09117 5.78515C1.69378 5.78515 2.18234 5.2966 2.18234 4.69398C2.18234 3.30907 3.30907 2.18233 4.69398 2.18233C6.07889 2.18233 7.20563 3.30907 7.20563 4.69398C7.20563 6.07889 6.07889 7.20563 4.69398 7.20563C4.09137 7.20563 3.60282 7.69419 3.60282 8.2968V10.7639C3.60282 11.3665 4.09137 11.8551 4.69398 11.8551C5.2966 11.8551 5.78515 11.3665 5.78515 10.7639V9.25994C7.84899 8.7668 9.38797 6.90665 9.38797 4.69391C9.38797 2.10574 7.28223 0 4.69398 0Z" fill="white"/>
<path d="M4.69419 16.0001C5.53784 16.0001 6.22175 15.3162 6.22175 14.4725C6.22175 13.6289 5.53784 12.9449 4.69419 12.9449C3.85054 12.9449 3.16663 13.6289 3.16663 14.4725C3.16663 15.3162 3.85054 16.0001 4.69419 16.0001Z" fill="white"/>
</svg>
