<svg width="16" height="16" viewBox="0 0 16 16" fill="none" xmlns="http://www.w3.org/2000/svg">
<path d="M10.8125 0H5.1875C4.92859 0 4.71875 0.209839 4.71875 0.46875V3.90625C4.71875 4.16516 4.92859 4.375 5.1875 4.375H10.8125C11.0714 4.375 11.2812 4.16516 11.2812 3.90625V0.46875C11.2812 0.209839 11.0714 0 10.8125 0Z" fill="white"/>
<path d="M10.8125 5.8125H5.1875C4.92859 5.8125 4.71875 6.02234 4.71875 6.28125V9.71875C4.71875 9.97766 4.92859 10.1875 5.1875 10.1875H10.8125C11.0714 10.1875 11.2812 9.97766 11.2812 9.71875V6.28125C11.2812 6.02234 11.0714 5.8125 10.8125 5.8125Z" fill="white"/>
<path d="M10.8125 11.625H5.1875C4.92859 11.625 4.71875 11.8348 4.71875 12.0938V15.5312C4.71875 15.7902 4.92859 16 5.1875 16H10.8125C11.0714 16 11.2812 15.7902 11.2812 15.5312V12.0938C11.2812 11.8348 11.0714 11.625 10.8125 11.625Z" fill="white"/>
<path d="M14.2812 2.4375H12.4062C12.1473 2.4375 11.9375 2.64734 11.9375 2.90625C11.9375 3.16516 12.1473 3.375 12.4062 3.375H14.2812C14.712 3.375 15.0625 3.72546 15.0625 4.15625V6.03125C15.0625 6.46204 14.712 6.8125 14.2812 6.8125H13.538L13.9877 6.36267C14.1708 6.17969 14.1708 5.88281 13.9877 5.69983C13.8047 5.51672 13.5078 5.51672 13.3248 5.69983L12.0748 6.94983C11.8917 7.13281 11.8917 7.42957 12.0748 7.61267L13.3248 8.86267C13.4163 8.95422 13.5363 9 13.6562 9C13.7762 9 13.8962 8.95422 13.9877 8.86267C14.1708 8.67969 14.1708 8.38281 13.9877 8.19983L13.538 7.75H14.2812C15.229 7.75 16 6.979 16 6.03125V4.15625C16 3.2085 15.229 2.4375 14.2812 2.4375Z" fill="white"/>
<path d="M2.67517 11.5123C2.49219 11.3292 2.19531 11.3292 2.01233 11.5123C1.82922 11.6953 1.82922 11.9922 2.01233 12.1752L2.46204 12.625H1.71875C1.28796 12.625 0.9375 12.2745 0.9375 11.8438V9.96875C0.9375 9.53796 1.28796 9.1875 1.71875 9.1875H3.59375C3.85266 9.1875 4.0625 8.97766 4.0625 8.71875C4.0625 8.45984 3.85266 8.25 3.59375 8.25H1.71875C0.770996 8.25 0 9.021 0 9.96875V11.8438C0 12.7915 0.770996 13.5625 1.71875 13.5625H2.46204L2.01233 14.0123C1.82922 14.1953 1.82922 14.4922 2.01233 14.6752C2.10376 14.7667 2.22375 14.8125 2.34375 14.8125C2.46375 14.8125 2.58374 14.7667 2.67517 14.6752L3.92517 13.4252C4.10828 13.2422 4.10828 12.9453 3.92517 12.7623L2.67517 11.5123Z" fill="white"/>
</svg>
